<svg width="64" height="64" viewBox="0 0 64 64" fill="none" xmlns="http://www.w3.org/2000/svg">
<rect x="5.00012" y="9.00012" width="53.9999" height="49.9999" rx="7.99998" fill="url(#paint0_linear_2689_60602)"/>
<rect x="5" y="5" width="53.9999" height="49.9999" rx="7.99998" fill="url(#paint1_linear_2689_60602)"/>
<rect x="5.7" y="5.7" width="52.5999" height="48.5999" rx="7.29998" stroke="url(#paint2_linear_2689_60602)" stroke-width="1.4" style="mix-blend-mode:soft-light"/>
<path fill-rule="evenodd" clip-rule="evenodd" d="M34.1093 11.48C34.7108 11.4805 35.2917 11.7012 35.7414 12.1007C36.1911 12.5001 36.4788 13.0507 36.5504 13.6479L36.9427 16.7313C37.719 16.9827 38.4743 17.2951 39.2013 17.6657L41.6535 15.7588C42.1272 15.3859 42.7219 15.2009 43.3236 15.2394C43.9252 15.2779 44.4917 15.5369 44.914 15.9671L47.5006 18.5543C47.9283 18.9764 48.1856 19.5413 48.2226 20.1411C48.2595 20.7408 48.0736 21.3334 47.701 21.8048L45.7942 24.2601C46.1645 24.9867 46.4768 25.7415 46.7286 26.5172L49.8167 26.9095C50.4128 26.9818 50.962 27.2696 51.3603 27.719C51.7584 28.1683 51.9782 28.7481 51.9783 29.3485V33.0277C51.9778 33.6293 51.7566 34.2101 51.3571 34.6599C50.9577 35.1094 50.4075 35.3973 49.8104 35.4688L46.7286 35.8612C46.474 36.643 46.1621 37.4004 45.7942 38.1182L47.701 40.5719C48.074 41.0456 48.259 41.6404 48.2205 42.242C48.182 42.8437 47.923 43.4102 47.4927 43.8325L44.9056 46.4191C44.0515 47.3011 42.6488 47.3915 41.655 46.6195L39.1997 44.7126C38.4732 45.0829 37.7183 45.3953 36.9427 45.6471L36.5504 48.7352C36.4025 49.967 35.3526 50.8984 34.1093 50.8984H30.4305C29.1889 50.8984 28.1374 49.9671 27.9895 48.7304L27.5971 45.6487C26.8137 45.3957 26.0579 45.0821 25.3401 44.7142L22.8864 46.6211C22.4126 46.9935 21.8182 47.1786 21.2168 47.1405C20.6153 47.1023 20.0487 46.8437 19.6258 46.4144L17.0392 43.8272C16.6117 43.4046 16.3548 42.8393 16.3178 42.2394C16.2809 41.6395 16.4665 41.0469 16.8388 40.5751L18.7457 38.1198C18.3794 37.402 18.0658 36.6462 17.8112 35.8627L14.7231 35.4704C13.4912 35.3226 12.5599 34.2727 12.5599 33.0293V29.3506C12.5599 28.1073 13.4911 27.0574 14.7278 26.9095L17.8112 26.5172C18.0623 25.7413 18.3747 24.9864 18.7457 24.2601L16.8388 21.8064C16.4654 21.3326 16.2798 20.7373 16.3183 20.1353C16.3568 19.5333 16.6164 18.9666 17.0471 18.5443L19.6342 15.9592C20.0567 15.5322 20.6215 15.2754 21.221 15.2384C21.8206 15.2014 22.413 15.3869 22.8848 15.7588L25.3385 17.6657C26.0652 17.2944 26.8206 16.982 27.5971 16.7313L27.9895 13.6431C28.1373 12.4113 29.1872 11.48 30.4305 11.48H34.1093Z" fill="#0C121D"/>
<path fill-rule="evenodd" clip-rule="evenodd" d="M34.1093 10.13C34.7108 10.1306 35.2917 10.3512 35.7414 10.7507C36.1911 11.1501 36.4788 11.7007 36.5504 12.2979L36.9427 15.3813C37.719 15.6327 38.4743 15.9451 39.2013 16.3157L41.6535 14.4089C42.1272 14.0359 42.7219 13.8509 43.3236 13.8894C43.9252 13.9279 44.4917 14.1869 44.914 14.6172L47.5006 17.2043C47.9283 17.6264 48.1856 18.1913 48.2226 18.7911C48.2595 19.3909 48.0736 19.9834 47.701 20.4549L45.7942 22.9102C46.1645 23.6367 46.4768 24.3915 46.7286 25.1672L49.8167 25.5595C50.4128 25.6318 50.962 25.9197 51.3603 26.369C51.7584 26.8183 51.9782 27.3981 51.9783 27.9985V31.6778C51.9778 32.2793 51.7566 32.8602 51.3571 33.3099C50.9577 33.7594 50.4075 34.0473 49.8104 34.1188L46.7286 34.5112C46.474 35.293 46.1621 36.0504 45.7942 36.7682L47.701 39.2219C48.074 39.6957 48.259 40.2904 48.2205 40.892C48.182 41.4937 47.923 42.0602 47.4927 42.4825L44.9056 45.0691C44.0515 45.9511 42.6488 46.0415 41.655 45.2695L39.1997 43.3626C38.4732 43.733 37.7183 44.0453 36.9427 44.2971L36.5504 47.3852C36.4025 48.6171 35.3526 49.5484 34.1093 49.5484H30.4305C29.1889 49.5484 28.1374 48.6172 27.9895 47.3805L27.5971 44.2987C26.8137 44.0457 26.0579 43.7321 25.3401 43.3642L22.8864 45.2711C22.4126 45.6435 21.8182 45.8287 21.2168 45.7905C20.6153 45.7523 20.0487 45.4937 19.6258 45.0644L17.0392 42.4772C16.6117 42.0547 16.3548 41.4893 16.3178 40.8894C16.2809 40.2895 16.4665 39.6969 16.8388 39.2251L18.7457 36.7698C18.3794 36.052 18.0658 35.2962 17.8112 34.5128L14.7231 34.1204C13.4912 33.9726 12.5599 32.9227 12.5599 31.6794V28.0006C12.5599 26.7573 13.4911 25.7074 14.7278 25.5595L17.8112 25.1672C18.0623 24.3913 18.3747 23.6364 18.7457 22.9102L16.8388 20.4564C16.4654 19.9826 16.2798 19.3873 16.3183 18.7853C16.3568 18.1833 16.6164 17.6167 17.0471 17.1943L19.6342 14.6093C20.0567 14.1823 20.6215 13.9254 21.221 13.8884C21.8206 13.8514 22.413 14.037 22.8848 14.4089L25.3385 16.3157C26.0652 15.9444 26.8206 15.632 27.5971 15.3813L27.9895 12.2932C28.1373 11.0613 29.1872 10.13 30.4305 10.13H34.1093Z" fill="#17243B"/>
<g opacity="0.7" clip-path="url(#clip0_2689_60602)">
<path d="M32.4596 20.12C29.4159 20.1237 26.9494 22.5902 26.9457 25.6339V29.0271C26.9457 29.2614 27.1356 29.4513 27.3698 29.4513H29.0664C29.3007 29.4513 29.4906 29.2614 29.4906 29.0271V25.6339C29.4906 23.9942 30.8199 22.6649 32.4596 22.6649C34.0994 22.6649 35.4287 23.9942 35.4287 25.6339V29.0271C35.4287 29.2614 35.6186 29.4513 35.8528 29.4513H37.5494C37.7836 29.4513 37.9736 29.2614 37.9736 29.0271V25.6339C37.9698 22.5902 35.5033 20.1237 32.4596 20.12Z" fill="#5F7F8E"/>
<path d="M27.3694 28.6028H37.5489C38.7202 28.6028 39.6697 29.5523 39.6697 30.7235V38.3582C39.6697 39.5295 38.7202 40.479 37.5489 40.479H27.3694C26.1981 40.479 25.2487 39.5295 25.2487 38.3582V30.7236C25.2487 29.5523 26.1981 28.6028 27.3694 28.6028Z" fill="#FE9923"/>
<path d="M34.5799 33.2685C34.5848 32.0972 33.6393 31.1437 32.4681 31.1388C31.2968 31.1339 30.3433 32.0793 30.3384 33.2506C30.3367 33.6474 30.4464 34.0367 30.655 34.3743C30.8636 34.7119 31.1627 34.9842 31.5184 35.1602L31.1909 37.4506C31.1581 37.6825 31.3195 37.8971 31.5515 37.9299C31.5711 37.9327 31.591 37.9341 31.6108 37.9341H33.3074C33.5417 37.9365 33.7335 37.7485 33.7358 37.5143C33.736 37.4927 33.7346 37.4711 33.7315 37.4497L33.4041 35.1593C33.7555 34.9835 34.0514 34.7137 34.259 34.3799C34.4665 34.0462 34.5776 33.6615 34.5799 33.2685Z" fill="#0E1A2C"/>
</g>
<g clip-path="url(#clip1_2689_60602)">
<path d="M32.4596 18.77C29.4159 18.7738 26.9494 21.2402 26.9457 24.284V27.6771C26.9457 27.9114 27.1356 28.1013 27.3698 28.1013H29.0664C29.3007 28.1013 29.4906 27.9114 29.4906 27.6771V24.284C29.4906 22.6442 30.8199 21.3149 32.4596 21.3149C34.0994 21.3149 35.4287 22.6442 35.4287 24.284V27.6771C35.4287 27.9114 35.6186 28.1013 35.8528 28.1013H37.5494C37.7836 28.1013 37.9736 27.9114 37.9736 27.6771V24.284C37.9698 21.2402 35.5033 18.7738 32.4596 18.77Z" fill="#5F7F8E"/>
<path d="M27.3694 27.2531H37.5489C38.7202 27.2531 39.6697 28.2025 39.6697 29.3738V37.0085C39.6697 38.1797 38.7202 39.1292 37.5489 39.1292H27.3694C26.1981 39.1292 25.2487 38.1797 25.2487 37.0085V29.3738C25.2487 28.2025 26.1981 27.2531 27.3694 27.2531Z" fill="#FE9923"/>
<path d="M34.5799 31.9188C34.5848 30.7475 33.6393 29.794 32.4681 29.7891C31.2968 29.7842 30.3433 30.7296 30.3384 31.9009C30.3367 32.2977 30.4464 32.687 30.655 33.0246C30.8636 33.3621 31.1627 33.6344 31.5184 33.8104L31.1909 36.1008C31.1581 36.3328 31.3195 36.5474 31.5515 36.5802C31.5711 36.583 31.591 36.5844 31.6108 36.5844H33.3074C33.5417 36.5868 33.7335 36.3988 33.7358 36.1645C33.736 36.143 33.7346 36.1214 33.7315 36.1L33.4041 33.8096C33.7555 33.6337 34.0514 33.364 34.259 33.0302C34.4665 32.6965 34.5776 32.3118 34.5799 31.9188Z" fill="#0E1A2C"/>
</g>
<defs>
<linearGradient id="paint0_linear_2689_60602" x1="5.00012" y1="59" x2="59" y2="59" gradientUnits="userSpaceOnUse">
<stop stop-color="#657A97"/>
<stop offset="0.05" stop-color="#8D9EB5"/>
<stop offset="0.15" stop-color="#263C57"/>
<stop offset="0.85" stop-color="#263C57"/>
<stop offset="0.95" stop-color="#8D9EB5"/>
<stop offset="1" stop-color="#657A97"/>
</linearGradient>
<linearGradient id="paint1_linear_2689_60602" x1="31.9999" y1="5" x2="31.9999" y2="54.9999" gradientUnits="userSpaceOnUse">
<stop stop-color="#7E8EA9"/>
<stop offset="1" stop-color="#617795"/>
</linearGradient>
<linearGradient id="paint2_linear_2689_60602" x1="31.9999" y1="1.00001" x2="31.9999" y2="60.9999" gradientUnits="userSpaceOnUse">
<stop stop-color="white" stop-opacity="0.9"/>
<stop offset="1" stop-color="white" stop-opacity="0.1"/>
</linearGradient>
<clipPath id="clip0_2689_60602">
<rect width="20.3591" height="20.3591" fill="white" transform="translate(22.2799 20.1201)"/>
</clipPath>
<clipPath id="clip1_2689_60602">
<rect width="20.3591" height="20.3591" fill="white" transform="translate(22.2799 18.77)"/>
</clipPath>
</defs>
</svg>
